<svg id="Layer_1" data-name="Layer 1" xmlns="http://www.w3.org/2000/svg" viewBox="0 0 193.96 278.98"><defs><style>.cls-1,.cls-3{fill:#fff;}.cls-2{fill:#5da0ac;stroke-width:5px;}.cls-2,.cls-3{stroke:#231f20;stroke-miterlimit:10;}.cls-3{stroke-width:3px;}.cls-4{fill:#231f20;}</style></defs><path class="cls-1" d="M249.43,513.9a85.34,85.34,0,0,1-33.74-35.34q-11.94-22.83-11.94-52.92V348.19q0-30.07,11.94-52.92a85.45,85.45,0,0,1,33.74-35.34q21.81-12.5,50.39-12.5t50.38,12.5a85.52,85.52,0,0,1,33.74,35.34q11.94,22.85,11.94,52.92v77.45q0,30.09-11.94,52.92A85.4,85.4,0,0,1,350.2,513.9q-21.81,12.51-50.38,12.51T249.43,513.9ZM329.61,481a51.28,51.28,0,0,0,19.93-21.62q7.05-14,7-32.43V346.88q0-18.42-7-32.43a51.22,51.22,0,0,0-19.93-21.62q-12.87-7.62-29.79-7.62T270,292.83a51.16,51.16,0,0,0-19.93,21.62q-7.05,14-7.05,32.43V427q0,18.42,7.05,32.43A51.21,51.21,0,0,0,270,481q12.87,7.61,29.8,7.61T329.61,481Z" transform="translate(-203.75 -247.43)"/><path class="cls-1" d="M257.29,494.11a72,72,0,0,1-28.48-29.84Q218.73,445,218.73,419.61V354.23q0-25.38,10.08-44.67a72.08,72.08,0,0,1,28.48-29.83q18.4-10.55,42.52-10.55t42.53,10.55a72.08,72.08,0,0,1,28.48,29.83q10.08,19.28,10.08,44.67v65.38q0,25.38-10.08,44.66a72,72,0,0,1-28.48,29.84q-18.4,10.54-42.53,10.55T257.29,494.11ZM325,466.34a43.34,43.34,0,0,0,16.82-18.25q5.94-11.82,5.95-27.37v-67.6q0-15.56-5.95-27.37A43.29,43.29,0,0,0,325,307.5q-10.87-6.44-25.16-6.43t-25.15,6.43a43.29,43.29,0,0,0-16.82,18.25q-5.94,11.82-5.95,27.37v67.6q0,15.55,5.95,27.37a43.34,43.34,0,0,0,16.82,18.25q10.88,6.42,25.15,6.42T325,466.34Z" transform="translate(-203.75 -247.43)"/><path class="cls-2" d="M252.86,505.27a79.63,79.63,0,0,1-31.45-32.94Q210.28,451,210.28,423V350.82q0-28,11.13-49.32a79.63,79.63,0,0,1,31.45-32.94q20.33-11.64,47-11.65t46.95,11.65a79.63,79.63,0,0,1,31.45,32.94q11.13,21.3,11.13,49.32V423q0,28-11.13,49.32a79.63,79.63,0,0,1-31.45,32.94q-20.32,11.65-46.95,11.65T252.86,505.27Zm74.73-30.66a47.82,47.82,0,0,0,18.57-20.15q6.57-13.05,6.57-30.22V349.6q0-17.18-6.57-30.23a47.8,47.8,0,0,0-18.57-20.14q-12-7.1-27.77-7.1T272,299.23a47.73,47.73,0,0,0-18.57,20.14q-6.57,13.06-6.57,30.23v74.64q0,17.17,6.57,30.22A47.76,47.76,0,0,0,272,474.61q12,7.09,27.78,7.1T327.59,474.61Z" transform="translate(-203.75 -247.43)"/><polygon class="cls-3" points="188.6 224.19 147.82 276.12 116.86 211.88 188.6 224.19"/><polygon class="cls-4" points="193.96 254.9 181.29 273.27 161.31 258.91 176.34 242.13 193.96 254.9"/></svg>